<?xml version="1.0" encoding="UTF-8"?>
<!DOCTYPE svg PUBLIC "-//W3C//DTD SVG 1.1//EN" "http://www.w3.org/Graphics/SVG/1.1/DTD/svg11.dtd">
<!-- Creator: CorelDRAW X7 -->
<svg xmlns="http://www.w3.org/2000/svg" xml:space="preserve" width="1.5625in" height="1.5625in" version="1.1" style="shape-rendering:geometricPrecision; text-rendering:geometricPrecision; image-rendering:optimizeQuality; fill-rule:evenodd; clip-rule:evenodd"
viewBox="0 0 329 329"
 xmlns:xlink="http://www.w3.org/1999/xlink">
 <defs>
  <style type="text/css">
   <![CDATA[
    .fil1 {fill:none}
    .fil0 {fill:black}
   ]]>
  </style>
 </defs>
 <g id="Layer_x0020_1">
  <metadata id="CorelCorpID_0Corel-Layer"/>
  <path class="fil0" d="M104 0l67 0 0 0c19,0 34,15 34,34 0,19 -15,34 -34,34l0 0 -42 0c-33,0 -61,28 -61,61l0 71c0,34 28,61 61,61l71 0c34,0 61,-27 61,-61l0 -34 0 0c0,-19 16,-34 34,-34 19,0 34,15 34,34l0 0 0 60c0,57 -46,103 -103,103l-122 0c-57,0 -104,-46 -104,-103l0 -122c0,-57 47,-104 104,-104zm191 0c19,0 34,15 34,34 0,19 -15,34 -34,34 -18,0 -34,-15 -34,-34 0,-19 16,-34 34,-34z"/>
  <rect class="fil1" x="27" y="27" width="275" height="275"/>
  <rect class="fil1" width="329" height="329"/>
 </g>
</svg>
